HIERARCHY
ROOT Hips
{
	OFFSET	0.00	0.00	0.00
	CHANNELS 6 Xposition Yposition Zposition Zrotation Xrotation Yrotation
	JOINT Spine
	{
		OFFSET	 0.001036	 0.054084	 0.002224
		CHANNELS 3 Zrotation Xrotation Yrotation
		JOINT Chest
		{
			OFFSET	 0.000000	 0.125398	-0.000225
			CHANNELS 3 Zrotation Xrotation Yrotation
			JOINT UpperChest
			{
				OFFSET	 0.000000	 0.129999	-0.000416
				CHANNELS 3 Zrotation Xrotation Yrotation
				JOINT Left_Shoulder
				{
					OFFSET	 0.031414	 0.212436	-0.009448
					CHANNELS 3 Zrotation Xrotation Yrotation
					JOINT Left_UpperArm
					{
						OFFSET	 0.187996	 0.004516	-0.000212
						CHANNELS 3 Zrotation Xrotation Yrotation
						JOINT Left_LowerArm
						{
							OFFSET	 0.000040	 0.344007	-0.001341
							CHANNELS 3 Zrotation Xrotation Yrotation
							JOINT Left_Hand
							{
								OFFSET	-0.000057	 0.351349	 0.000257
								CHANNELS 3 Zrotation Xrotation Yrotation
								JOINT Left_IndexProximal
								{
									OFFSET	-0.023797	 0.154463	 0.043738
									CHANNELS 3 Zrotation Xrotation Yrotation
									JOINT Left_IndexIntermediate
									{
										OFFSET	-0.000092	 0.064663	-0.000404
										CHANNELS 3 Zrotation Xrotation Yrotation
										JOINT Left_IndexDistal
										{
											OFFSET	-0.000047	 0.046385	-0.000439
											CHANNELS 3 Zrotation Xrotation Yrotation
											End Site
											{
												OFFSET	-0.000128	 0.124994	-0.001183
											}
										}
									}
								}
								JOINT Left_MiddleProximal
								{
									OFFSET	-0.033196	 0.152255	 0.009502
									CHANNELS 3 Zrotation Xrotation Yrotation
									JOINT Left_MiddleIntermediate
									{
										OFFSET	 0.004174	 0.086856	 0.006638
										CHANNELS 3 Zrotation Xrotation Yrotation
										JOINT Left_MiddleDistal
										{
											OFFSET	-0.000078	 0.044563	-0.000266
											CHANNELS 3 Zrotation Xrotation Yrotation
											End Site
											{
												OFFSET	-0.000219	 0.124998	-0.000745
											}
										}
									}
								}
								JOINT Left_PinkyProximal
								{
									OFFSET	-0.004105	 0.131699	-0.052702
									CHANNELS 3 Zrotation Xrotation Yrotation
									JOINT Left_PinkyIntermediate
									{
										OFFSET	-0.000193	 0.051773	-0.000246
										CHANNELS 3 Zrotation Xrotation Yrotation
										JOINT Left_PinkyDistal
										{
											OFFSET	-0.000106	 0.032399	-0.000161
											CHANNELS 3 Zrotation Xrotation Yrotation
											End Site
											{
												OFFSET	-0.000410	 0.124998	-0.000622
											}
										}
									}
								}
								JOINT Left_RingProximal
								{
									OFFSET	-0.020290	 0.145227	-0.023773
									CHANNELS 3 Zrotation Xrotation Yrotation
									JOINT Left_RingIntermediate
									{
										OFFSET	-0.000186	 0.067454	-0.000370
										CHANNELS 3 Zrotation Xrotation Yrotation
										JOINT Left_RingDistal
										{
											OFFSET	-0.000148	 0.046919	-0.000324
											CHANNELS 3 Zrotation Xrotation Yrotation
											End Site
											{
												OFFSET	-0.000393	 0.124996	-0.000863
											}
										}
									}
								}
								JOINT Left_ThumbProximal
								{
									OFFSET	 0.011410	 0.058743	 0.052654
									CHANNELS 3 Zrotation Xrotation Yrotation
									JOINT Left_ThumbIntermediate
									{
										OFFSET	-0.000063	 0.049817	 0.007157
										CHANNELS 3 Zrotation Xrotation Yrotation
										JOINT Left_ThumbDistal
										{
											OFFSET	 0.000248	 0.068644	-0.010463
											CHANNELS 3 Zrotation Xrotation Yrotation
											End Site
											{
												OFFSET	 0.000447	 0.123572	-0.018836
											}
										}
									}
								}
							}
						}
					}
				}
				JOINT Neck
				{
					OFFSET	 0.003684	 0.290360	-0.026651
					CHANNELS 3 Zrotation Xrotation Yrotation
					JOINT Head
					{
						OFFSET	 0.000000	 0.154082	 0.000000
						CHANNELS 3 Zrotation Xrotation Yrotation
						End Site
						{
							OFFSET	 0.000000	 0.125000	 0.000000
						}
					}
				}
				JOINT Right_Shoulder
				{
					OFFSET	-0.029917	 0.213129	-0.009433
					CHANNELS 3 Zrotation Xrotation Yrotation
					JOINT Right_UpperArm
					{
						OFFSET	-0.186580	-0.004484	 0.000219
						CHANNELS 3 Zrotation Xrotation Yrotation
						JOINT Right_LowerArm
						{
							OFFSET	-0.000051	-0.343489	 0.001339
							CHANNELS 3 Zrotation Xrotation Yrotation
							JOINT Right_Hand
							{
								OFFSET	 0.000055	-0.344728	-0.000264
								CHANNELS 3 Zrotation Xrotation Yrotation
								JOINT Right_IndexProximal
								{
									OFFSET	 0.028263	-0.154302	-0.041692
									CHANNELS 3 Zrotation Xrotation Yrotation
									JOINT Right_IndexIntermediate
									{
										OFFSET	 0.000075	-0.062927	 0.000407
										CHANNELS 3 Zrotation Xrotation Yrotation
										JOINT Right_IndexDistal
										{
											OFFSET	 0.000088	-0.046471	 0.000452
											CHANNELS 3 Zrotation Xrotation Yrotation
											End Site
											{
												OFFSET	 0.000237	-0.124994	 0.001215
											}
										}
									}
								}
								JOINT Right_MiddleProximal
								{
									OFFSET	 0.034615	-0.152060	-0.007383
									CHANNELS 3 Zrotation Xrotation Yrotation
									JOINT Right_MiddleIntermediate
									{
										OFFSET	-0.005287	-0.082659	-0.005966
										CHANNELS 3 Zrotation Xrotation Yrotation
										JOINT Right_MiddleDistal
										{
											OFFSET	 0.000107	-0.044083	 0.000270
											CHANNELS 3 Zrotation Xrotation Yrotation
											End Site
											{
												OFFSET	 0.000303	-0.124997	 0.000766
											}
										}
									}
								}
								JOINT Right_PinkyProximal
								{
									OFFSET	-0.000035	-0.131179	 0.052464
									CHANNELS 3 Zrotation Xrotation Yrotation
									JOINT Right_PinkyIntermediate
									{
										OFFSET	 0.000186	-0.050983	 0.000253
										CHANNELS 3 Zrotation Xrotation Yrotation
										JOINT Right_PinkyDistal
										{
											OFFSET	 0.000125	-0.031289	 0.000166
											CHANNELS 3 Zrotation Xrotation Yrotation
											End Site
											{
												OFFSET	 0.000500	-0.124997	 0.000663
											}
										}
									}
								}
								JOINT Right_RingProximal
								{
									OFFSET	 0.018675	-0.144858	 0.025202
									CHANNELS 3 Zrotation Xrotation Yrotation
									JOINT Right_RingIntermediate
									{
										OFFSET	 0.000169	-0.064428	 0.000368
										CHANNELS 3 Zrotation Xrotation Yrotation
										JOINT Right_RingDistal
										{
											OFFSET	 0.000179	-0.046159	 0.000330
											CHANNELS 3 Zrotation Xrotation Yrotation
											End Site
											{
												OFFSET	 0.000485	-0.124996	 0.000893
											}
										}
									}
								}
								JOINT Right_ThumbProximal
								{
									OFFSET	-0.008400	-0.060190	-0.052472
									CHANNELS 3 Zrotation Xrotation Yrotation
									JOINT Right_ThumbIntermediate
									{
										OFFSET	 0.000077	-0.049243	-0.007057
										CHANNELS 3 Zrotation Xrotation Yrotation
										JOINT Right_ThumbDistal
										{
											OFFSET	-0.000260	-0.068736	 0.010510
											CHANNELS 3 Zrotation Xrotation Yrotation
											End Site
											{
												OFFSET	-0.000468	-0.123563	 0.018893
											}
										}
									}
								}
							}
						}
					}
				}
			}
		}
	}
}
MOTION
Frames: 7
Frame Time: 0.060000
-0.053 0.879 -0.449 0.848 -6.693 -2.952 -1.571 17.414 0.807 -0.054 -0.151 0.227 0.06 -0.124 -0.009 -10.779 -5.368 -13.376 -140.046 52.561 22.861 24.399 41.834 -30.423 -4.132 7.962 -9.143 -65.541 -3.989 87.866 162.941 84.584 -160.615 41.186 82.79 -38.511 -80.762 3.686 83.485 12.024 83.447 -18.974 32.225 83.44 -33.897 -70.182 15.078 70.159 153.202 82.145 -159.704 -6.994 74.272 7.56 -76.599 6.866 73.931 -66.183 88.404 62.991 -7.339 78.51 5.405 36.243 47.544 141.804 2.318 29.522 -0.849 1.268 -5.135 0.226 -2.73 -1.467 -1.277 0 -6.959 0 -169.262 3.858 170.023 -140.477 53.158 19.973 28.927 41.605 -32.624 -10.553 2.798 -8.143 -64.382 0.626 91.448 127.339 82.103 -119.639 44.785 77.367 -37.399 -79.468 8.641 79.517 -15.72 83.67 14.012 49.882 79.641 -46.569 -68.346 19.028 71.279 115.666 81.271 -116.759 11.356 79.143 -6.042 -76.123 11.578 76.817 53.228 85.982 -51.332 14.632 78.936 -11.871 42.564 47.118 135.471 6.57 37.363 -2.315 4.038 10.208 -0.669
-0.052 0.878 -0.451 0.874 -6.49 -2.827 -1.554 17.124 0.839 -0.067 -0.099 0.206 0.015 -0.098 -0.047 -10.565 -5.354 -13.285 -140.323 53.182 22.873 24.842 41.973 -30.85 -5.304 5.226 -9.295 -65.591 -3.999 87.821 163.145 84.527 -160.818 43.527 83.09 -40.841 -80.663 3.676 83.364 12.199 83.535 -19.151 32.728 83.522 -34.405 -69.515 14.899 69.931 153.551 82.018 -160.059 -6.942 74.181 7.508 -75.632 6.695 73.76 -66.922 88.414 63.73 -7.373 78.563 5.438 40.388 47.479 136.367 0.338 23.09 -0.249 0.674 -10.468 0.436 -2.628 -1.153 -1.314 0 -6.959 0 -169.6 3.833 170.102 -139.834 52.814 18.508 29.314 42.052 -33.997 -14.833 0.02 -9.145 -64.405 0.591 91.316 125.935 82.254 -118.252 53.555 78.845 -45.987 -79.567 8.66 79.009 -15.487 83.567 13.759 51.819 79.898 -48.503 -68.41 19.057 71.347 115.366 81.298 -116.46 11.261 79.036 -5.952 -76.167 11.586 76.815 51.572 85.894 -49.679 15.565 79.562 -12.784 43.878 47.753 133.009 2.764 28.431 -0.74 1.901 -1.468 0.084
-0.05 0.878 -0.453 0.911 -6.359 -2.721 -1.502 16.995 0.85 -0.053 -0.088 0.207 0.017 -0.092 -0.054 -10.417 -5.255 -13.102 -140.546 53.524 23.107 25.997 42.912 -31.77 -5.875 2.936 -9.483 -65.599 -4.008 87.785 163.407 84.447 -161.078 44.717 83.229 -42.026 -80.552 3.665 83.233 12.3 83.584 -19.253 33.055 83.574 -34.734 -69.459 14.873 69.851 153.596 82.002 -160.105 -6.892 74.094 7.459 -75.429 6.655 73.68 -65.63 88.397 62.438 -7.401 78.606 5.464 41.158 47.316 135.238 -0.929 18.69 0.015 0.317 -13.692 0.538 -2.695 -0.807 -1.388 0 -6.959 0 -169.806 3.789 170.181 -139.576 52.496 17.659 30.135 42.607 -35.102 -16.014 -0.715 -9.486 -64.444 0.462 90.835 125.228 82.325 -117.552 57.436 79.323 -49.799 -79.625 8.677 78.466 -15.236 83.456 13.503 52.394 79.97 -49.076 -68.558 19.11 71.454 111.962 81.579 -113.056 11.2 78.967 -5.895 -76.21 11.593 76.789 49.664 85.784 -47.775 16.198 79.947 -13.405 43.362 47.719 133.33 0.44 22.18 -0.083 0.612 -8.842 0.341
-0.048 0.878 -0.455 0.933 -6.321 -2.696 -1.413 17.036 0.839 -0.008 -0.1 0.217 0.059 -0.098 -0.046 -10.289 -5.125 -12.886 -140.913 53.796 23.382 26.59 43.278 -32.12 -6.05 1.034 -9.572 -65.577 -4.022 87.733 163.644 84.372 -161.312 45.589 83.326 -42.894 -80.423 3.652 83.091 12.328 83.598 -19.283 33.298 83.612 -34.979 -69.473 14.862 69.774 153.488 82.04 -159.994 -6.822 73.969 7.388 -75.31 6.629 73.593 -64.311 88.379 61.121 -7.433 78.656 5.496 41.203 47.258 135.139 -1.292 17.424 0.072 0.29 -13.909 0.544 -2.945 -0.591 -1.404 0 -6.959 0 -169.892 3.741 170.261 -139.397 52.279 17.476 30.91 43.165 -35.697 -16.154 -1.079 -9.532 -64.474 0.374 90.503 124.683 82.376 -117.013 58.467 79.435 -50.814 -79.675 8.693 77.954 -15.019 83.358 13.281 52.851 80.026 -49.533 -69.82 19.504 71.941 105.871 81.972 -106.966 11.037 78.778 -5.741 -76.3 11.609 76.75 45.582 85.509 -43.701 16.337 80.027 -13.541 42.957 47.758 133.686 -0.314 20.032 0.076 0.171 -11.376 0.393
-0.047 0.878 -0.457 0.967 -6.357 -2.705 -1.335 17.177 0.833 0.042 -0.12 0.215 0.1 -0.107 -0.05 -10.182 -5.04 -12.762 -141.033 53.99 23.449 26.787 43.468 -32.226 -6.178 -0.566 -9.684 -65.539 -4.041 87.665 163.874 84.298 -161.541 47.6 83.533 -44.896 -80.254 3.634 82.92 12.353 83.611 -19.311 33.616 83.662 -35.3 -69.52 14.858 69.703 153.335 82.092 -159.839 -6.744 73.825 7.309 -75.191 6.601 73.489 -63.169 88.363 59.98 -7.471 78.714 5.532 41.397 47.211 134.834 -1.682 16.034 0.124 0.224 -14.488 0.559 -3.229 -0.45 -1.38 0 -6.959 0 -169.916 3.706 170.294 -139.17 52.539 17.246 30.857 43.1 -35.6 -16.073 -0.907 -9.437 -64.52 0.286 90.171 124.029 82.436 -116.367 60.16 79.608 -52.479 -79.739 8.71 77.576 -14.82 83.264 13.078 53.324 80.082 -50.005 -71.023 19.868 72.419 100.468 82.22 -101.564 10.778 78.464 -5.499 -76.421 11.631 76.702 41.854 85.202 -39.981 16.467 80.101 -13.668 42.587 47.8 134.014 -0.915 18.303 0.181 -0.107 -12.955 0.414
-0.046 0.879 -0.459 0.975 -6.43 -2.76 -1.277 17.401 0.82 0.085 -0.147 0.215 0.141 -0.12 -0.049 -10.141 -4.974 -12.67 -140.97 54.117 23.438 26.798 43.475 -32.137 -6.302 -1.349 -9.712 -65.495 -4.065 87.577 164.076 84.233 -161.741 49.217 83.685 -46.507 -80.09 3.617 82.677 12.365 83.616 -19.325 33.932 83.71 -35.619 -69.595 14.864 69.647 153.152 82.157 -159.652 -6.634 73.622 7.2 -75.078 6.572 73.368 -62.082 88.346 58.893 -7.501 78.76 5.561 41.449 47.211 134.758 -1.723 15.89 0.129 0.219 -14.533 0.56 -3.462 -0.367 -1.331 0 -6.959 0 -169.847 3.67 170.312 -138.91 52.829 17.164 30.631 43.036 -35.304 -15.412 -0.276 -9.234 -64.569 0.217 89.903 123.341 82.496 -115.686 60.838 79.673 -53.146 -79.811 8.728 77.34 -14.631 83.173 12.884 53.818 80.139 -50.499 -71.832 20.108 72.776 95.757 82.371 -96.853 10.583 78.217 -5.317 -76.56 11.656 76.651 38.827 84.903 -36.962 16.583 80.166 -13.782 42.348 47.881 134.259 -0.904 18.347 0.179 -0.049 -12.618 0.41
-0.046 0.879 -0.46 0.959 -6.524 -2.857 -1.232 17.64 0.804 0.117 -0.172 0.219 0.178 -0.133 -0.039 -10.142 -4.926 -12.63 -140.729 54.088 23.352 26.961 43.485 -32.066 -6.596 -1.928 -9.686 -65.467 -4.093 87.474 164.266 84.168 -161.929 50.291 83.779 -47.577 -79.979 3.606 82.389 12.363 83.617 -19.325 34.254 83.757 -35.943 -69.692 14.875 69.599 152.943 82.229 -159.44 -6.521 73.407 7.087 -74.982 6.545 73.237 -61.12 88.331 57.933 -7.526 78.797 5.586 41.478 47.203 134.704 -1.818 15.553 0.14 0.215 -14.559 0.561 -3.688 -0.274 -1.217 0 -6.959 0 -169.754 3.643 170.325 -138.727 53.201 17.245 30.313 42.914 -34.868 -14.695 0.265 -9.026 -64.639 0.13 89.565 122.574 82.56 -114.928 61.845 79.765 -54.138 -79.896 8.748 77.082 -14.45 83.08 12.697 54.377 80.202 -51.057 -72.643 20.343 73.141 90.977 82.468 -92.074 10.478 78.078 -5.219 -76.782 11.699 76.61 36.365 84.619 -34.508 16.708 80.236 -13.905 42.114 47.963 134.496 -0.892 18.391 0.177 -0.009 -12.39 0.407
